<?xml version="1.0" encoding="UTF-8" standalone="no"?>
<!-- Created with Inkscape (http://www.inkscape.org/) -->

<svg
   xmlns:dc="http://purl.org/dc/elements/1.1/"
   xmlns:cc="http://creativecommons.org/ns#"
   xmlns:rdf="http://www.w3.org/1999/02/22-rdf-syntax-ns#"
   xmlns:svg="http://www.w3.org/2000/svg"
   xmlns="http://www.w3.org/2000/svg"
   xmlns:xlink="http://www.w3.org/1999/xlink"
   xmlns:sodipodi="http://sodipodi.sourceforge.net/DTD/sodipodi-0.dtd"
   xmlns:inkscape="http://www.inkscape.org/namespaces/inkscape"
   width="400"
   height="300"
   viewBox="0 0 105.83333 79.375002"
   version="1.1"
   id="svg8"
   inkscape:version="0.92.5 (2060ec1f9f, 2020-04-08)"
   sodipodi:docname="logo.svg">
  <defs
     id="defs2">
    <linearGradient
       inkscape:collect="always"
       id="linearGradient1152">
      <stop
         style="stop-color:#000000;stop-opacity:1"
         offset="0"
         id="stop1148" />
      <stop
         style="stop-color:#00ff00;stop-opacity:1"
         offset="1"
         id="stop1150" />
    </linearGradient>
    <linearGradient
       inkscape:collect="always"
       xlink:href="#linearGradient1152"
       id="linearGradient1154"
       x1="54.371876"
       y1="258.7677"
       x2="93.104416"
       y2="247.72572"
       gradientUnits="userSpaceOnUse"
       gradientTransform="matrix(1.2996784,0,0,1.3305054,-15.730554,-81.587303)" />
  </defs>
  <sodipodi:namedview
     id="base"
     pagecolor="#ffffff"
     bordercolor="#666666"
     borderopacity="1.0"
     inkscape:pageopacity="1"
     inkscape:pageshadow="2"
     inkscape:zoom="2"
     inkscape:cx="128.00528"
     inkscape:cy="135.34711"
     inkscape:document-units="px"
     inkscape:current-layer="layer1"
     showgrid="false"
     units="px"
     inkscape:pagecheckerboard="false"
     inkscape:snap-smooth-nodes="true"
     inkscape:window-width="1920"
     inkscape:window-height="948"
     inkscape:window-x="0"
     inkscape:window-y="27"
     inkscape:window-maximized="1" />
  <metadata
     id="metadata5">
    <rdf:RDF>
      <cc:Work
         rdf:about="">
        <dc:format>image/svg+xml</dc:format>
        <dc:type
           rdf:resource="http://purl.org/dc/dcmitype/StillImage" />
        <dc:title></dc:title>
      </cc:Work>
    </rdf:RDF>
  </metadata>
  <g
     inkscape:label="Capa 1"
     inkscape:groupmode="layer"
     id="layer1"
     transform="translate(0,-217.62498)"
     style="opacity:0.505">
    <path
       style="font-style:normal;font-variant:normal;font-weight:bold;font-stretch:normal;font-size:62.41521454px;line-height:1.25;font-family:'Nimbus Mono PS';-inkscape-font-specification:'Nimbus Mono PS Bold';letter-spacing:0px;word-spacing:0px;opacity:1;fill:url(#linearGradient1154);fill-opacity:1;stroke:none;stroke-width:2.05190277"
       d="m 85.538775,218.09989 c -2.184888,0.0277 -4.924673,0.39327 -8.239523,0.99077 l -3.354778,0.60506 -9.085778,1.5628 -10.788351,24.94323 -11.032826,-21.18847 -9.003836,1.54976 c -0.45634,0.0785 -0.816494,0.14919 -1.133035,0.21863 -0.1114,0.003 -0.224623,0.0133 -0.339847,0.0352 l -13.840225,2.62578 c -1.510851,0.2866 -2.727479,1.96443 -2.727479,3.82214 0,1.85769 1.216628,3.17089 2.727479,2.8843 l 10.370599,-1.9671 3.469626,-0.65868 c 1.510852,-0.28658 2.728153,1.02594 2.728153,2.88362 0,1.85239 -1.210516,3.5264 -2.715391,3.82007 v 0.001 c -0.0043,7.5e-4 -0.0085,7.8e-4 -0.01274,0.001 l -5.869353,1.11383 c -1.288221,0.49884 -2.264726,2.02525 -2.264726,3.68807 0,1.71425 1.037541,2.94988 2.384946,2.91594 l 9.56129,-1.81379 c 1.510852,-0.28658 2.72748,1.02593 2.72748,2.88362 0,1.85767 -1.216628,3.53623 -2.72748,3.82282 l -13.84023,2.62511 c -0.288359,0.0546 -0.565585,0.0507 -0.8261,-0.003 l -7.274395,1.30018 c -1.511046,0.27006 -2.727481,1.96512 -2.727481,3.8228 0,1.85769 1.216439,3.15426 2.727481,2.88363 l 7.026563,-1.25548 c 0.0086,-0.001 0.01689,-0.005 0.02552,-0.007 l 13.840227,-2.62577 c 1.510852,-0.28658 2.727478,1.02662 2.727478,2.88431 0,1.85769 -1.216626,3.53554 -2.727478,3.82213 l -11.365951,2.15687 c -1.298,0.49432 -2.284205,2.02143 -2.284205,3.69287 0,1.85769 1.216531,3.16437 2.727478,2.88431 l 7.203877,-1.33594 c 0.540136,-0.007 1.129992,-0.0618 1.77847,-0.17325 l 10.464629,-1.80073 c 3.731503,-0.64207 5.678611,-2.38905 5.678611,-5.29555 0,-1.41177 -0.648842,-2.54563 -1.784519,-3.18065 -0.892312,-0.51081 -1.62274,-0.55102 -3.894092,-0.16021 l -2.514569,0.43261 V 242.4128 l 9.085104,17.20544 7.706927,-1.32629 8.517578,-20.15026 v 21.01039 l -2.515244,0.43247 c -2.109112,0.36291 -2.757831,0.64031 -3.569029,1.27816 -1.297914,0.97074 -2.108909,2.52194 -2.108909,4.01672 0,1.3287 0.648837,2.54562 1.784512,3.18064 0.811198,0.44175 1.946551,0.49587 3.893426,0.1609 l 10.545892,-1.81448 c 3.731513,-0.64207 5.67794,-2.47208 5.67794,-5.29556 0,-1.41175 -0.648839,-2.5463 -1.784513,-3.18133 -0.811198,-0.44171 -1.378733,-0.50938 -3.163367,-0.28533 v -29.64681 l 2.075331,-0.5968 c 3.696865,-0.83075 6.067954,-1.85396 7.177009,-0.91377 1.13546,0.90725 1.832203,1.78355 1.832203,5.62217 v 10.05621 c 0,4.24409 0.594219,7.19246 1.782496,8.84474 1.188279,1.6523 2.388211,2.53094 5.319291,2.54811 -2.93108,1.38853 -4.990696,3.17591 -6.178973,5.36224 -1.188278,2.18634 -1.782498,5.38813 -1.782498,9.60518 v 10.05623 c 0,3.86565 -0.567791,6.50723 -1.703249,7.92479 -1.109058,1.41162 -3.512383,2.53279 -7.209249,3.36354 l -2.772477,0.62292 v 5.83873 l 2.495096,-0.56034 c 6.575132,-1.47754 10.958756,-3.46272 13.150464,-5.95563 2.218117,-2.49887 3.327242,-6.73533 3.327242,-12.70951 v -9.69113 c 0,-4.08189 0.713206,-7.06711 2.139134,-8.95544 1.425929,-1.88831 4.013665,-3.25384 7.763339,-4.09646 l 2.45546,-0.55211 v -5.79818 l -2.45546,0.55143 c -3.749674,0.84263 -6.33741,0.65389 -7.763339,-0.56655 -1.425928,-1.24744 -2.139134,-3.88525 -2.139134,-7.91311 v -9.7317 c 2e-6,-5.97416 -0.249439,-9.74258 -2.46756,-11.21751 -1.095852,-0.75393 -2.726048,-1.06386 -4.91094,-1.03613 z m -66.538802,24.72457 c -0.09192,0.003 -0.184954,0.0145 -0.279397,0.0309 l -8.9319733,1.53668 c -1.5110784,0.25999 -2.7281523,1.96515 -2.7281523,3.82281 0,1.8577 1.2170739,3.14364 2.7281523,2.88363 l 8.9319733,-1.53669 c 1.511076,-0.26001 2.72748,-1.96513 2.72748,-3.82283 0,-1.74158 -1.069356,-2.98068 -2.448083,-2.91455 z m -0.147088,26.33553 c -0.177837,-0.0106 -0.361919,0.001 -0.550734,0.0391 l -1.761677,0.35135 c -1.510524,0.30179 -2.727479,1.96513 -2.727479,3.82282 0,1.85769 1.216955,3.18531 2.727479,2.88362 l 1.761677,-0.35134 c 1.510526,-0.30179 2.727479,-1.96514 2.727479,-3.82283 0,-1.62548 -0.931878,-2.84535 -2.176745,-2.9228 z m -7.970875,1.43356 c -0.09191,0.005 -0.184961,0.0163 -0.279395,0.0336 L 3.289934,271.983 v -6.7e-4 c -1.5109481,0.28012 -2.72747923,1.96511 -2.72747923,3.8228 0,1.8577 1.21653113,3.16369 2.72747923,2.88362 l 7.312681,-1.35517 c 1.510947,-0.28015 2.727478,-1.96445 2.727478,-3.82213 0,-1.7416 -1.069445,-2.99845 -2.448083,-2.91799 z"
       id="path1065"
       inkscape:connector-curvature="0" />
    <text
       xml:space="preserve"
       style="font-style:normal;font-weight:normal;font-size:14.91811371px;line-height:1.25;font-family:sans-serif;letter-spacing:0px;word-spacing:0px;fill:#000000;fill-opacity:1;stroke:none;stroke-width:0.37295285"
       x="19.551706"
       y="313.62216"
       id="text1138"
       transform="matrix(1.0594363,-0.17154475,0,0.94389818,0,0)"><tspan
         sodipodi:role="line"
         id="tspan1136"
         x="19.551706"
         y="313.62216"
         style="fill:#000000;stroke-width:0.37295285">UBILLA</tspan></text>
  </g>
</svg>
